<svg width="52" height="10" viewBox="0 0 52 10" fill="none" xmlns="http://www.w3.org/2000/svg">
<path d="M3.132 10H1.08C1 10 0.936 9.972 0.888 9.916L0.48 9.508C0.424 9.46 0.396 9.396 0.396 9.316V1.564C0.396 1.484 0.424 1.42 0.48 1.372L0.888 0.952C0.936 0.904 1 0.879999 1.08 0.879999H3.132C3.212 0.879999 3.276 0.904 3.324 0.952L3.732 1.372C3.788 1.42 3.816 1.484 3.816 1.564V2.992C3.816 3.096 3.764 3.148 3.66 3.148H2.844C2.732 3.148 2.676 3.096 2.676 2.992V2.26C2.676 2.18 2.656 2.12 2.616 2.08C2.552 2.032 2.488 2.008 2.424 2.008H1.788C1.716 2.008 1.652 2.032 1.596 2.08C1.556 2.12 1.536 2.18 1.536 2.26V8.596C1.536 8.676 1.556 8.74 1.596 8.788C1.644 8.828 1.708 8.848 1.788 8.848H2.424C2.504 8.848 2.568 8.828 2.616 8.788C2.656 8.74 2.676 8.676 2.676 8.596V7.876C2.676 7.772 2.732 7.72 2.844 7.72H3.66C3.764 7.72 3.816 7.772 3.816 7.876V9.316C3.816 9.396 3.788 9.46 3.732 9.508L3.324 9.916C3.276 9.972 3.212 10 3.132 10ZM6.95728 1.024L8.49328 9.832C8.50928 9.944 8.46128 10 8.34928 10H7.53328C7.42928 10 7.37328 9.952 7.36528 9.856L7.00528 7.864C6.99728 7.768 6.94128 7.72 6.83728 7.72H5.87728C5.77328 7.72 5.71728 7.768 5.70928 7.864L5.38528 9.856C5.36928 9.952 5.30928 10 5.20528 10H4.38928C4.27728 10 4.22928 9.944 4.24528 9.832L5.76928 1.024C5.78528 0.927999 5.84128 0.879999 5.93728 0.879999H6.77728C6.87328 0.879999 6.93328 0.927999 6.95728 1.024ZM6.26128 4.54L5.94928 6.4C5.93328 6.512 5.98128 6.568 6.09328 6.568H6.62128C6.73328 6.568 6.78128 6.512 6.76528 6.4L6.45328 4.54C6.44528 4.492 6.42528 4.46 6.39328 4.444C6.36928 4.42 6.34128 4.42 6.30928 4.444C6.28528 4.46 6.26928 4.492 6.26128 4.54ZM9.021 9.844V1.036C9.021 0.931999 9.073 0.879999 9.177 0.879999H9.993C10.105 0.879999 10.161 0.931999 10.161 1.036V4.72C10.161 4.824 10.213 4.876 10.317 4.876H11.133C11.237 4.876 11.289 4.824 11.289 4.72V1.036C11.289 0.931999 11.341 0.879999 11.445 0.879999H12.285C12.389 0.879999 12.441 0.931999 12.441 1.036V9.844C12.441 9.948 12.389 10 12.285 10H11.445C11.341 10 11.289 9.948 11.289 9.844V6.172C11.289 6.068 11.237 6.016 11.133 6.016H10.317C10.213 6.016 10.161 6.068 10.161 6.172V9.844C10.161 9.948 10.105 10 9.993 10H9.177C9.073 10 9.021 9.948 9.021 9.844ZM17.14 1.06L15.652 5.956C15.636 6.052 15.628 6.116 15.628 6.148V9.844C15.628 9.948 15.576 10 15.472 10H14.656C14.552 10 14.5 9.948 14.5 9.844V6.148C14.5 6.092 14.488 6.028 14.464 5.956L12.988 1.06C12.964 0.939999 13.008 0.879999 13.12 0.879999H14.056C14.16 0.879999 14.224 0.924 14.248 1.012L14.968 3.772C14.992 3.852 15.024 3.892 15.064 3.892C15.104 3.892 15.136 3.856 15.16 3.784L15.88 1.012C15.904 0.924 15.968 0.879999 16.072 0.879999H17.008C17.12 0.879999 17.164 0.939999 17.14 1.06ZM19.2151 1.024L20.7511 9.832C20.7671 9.944 20.7191 10 20.6071 10H19.7911C19.6871 10 19.6311 9.952 19.6231 9.856L19.2631 7.864C19.2551 7.768 19.1991 7.72 19.0951 7.72H18.1351C18.0311 7.72 17.9751 7.768 17.9671 7.864L17.6431 9.856C17.6271 9.952 17.5671 10 17.4631 10H16.6471C16.5351 10 16.4871 9.944 16.5031 9.832L18.0271 1.024C18.0431 0.927999 18.0991 0.879999 18.1951 0.879999H19.0351C19.1311 0.879999 19.1911 0.927999 19.2151 1.024ZM18.5191 4.54L18.2071 6.4C18.1911 6.512 18.2391 6.568 18.3511 6.568H18.8791C18.9911 6.568 19.0391 6.512 19.0231 6.4L18.7111 4.54C18.7031 4.492 18.6831 4.46 18.6511 4.444C18.6271 4.42 18.5991 4.42 18.5671 4.444C18.5431 4.46 18.5271 4.492 18.5191 4.54ZM29.5315 0.879999H30.3475C30.4595 0.879999 30.5075 0.935999 30.4915 1.048L29.0995 9.856C29.0915 9.952 29.0355 10 28.9315 10H28.0915C27.9875 10 27.9275 9.952 27.9115 9.856L27.1675 5.044C27.1515 4.972 27.1195 4.936 27.0715 4.936C27.0235 4.936 26.9915 4.972 26.9755 5.044L26.2315 9.856C26.2075 9.952 26.1475 10 26.0515 10H25.2115C25.1075 10 25.0515 9.952 25.0435 9.856L23.6515 1.048C23.6355 0.935999 23.6835 0.879999 23.7955 0.879999H24.6115C24.7155 0.879999 24.7755 0.927999 24.7915 1.024L25.5355 6.232C25.5435 6.272 25.5595 6.3 25.5835 6.316C25.6155 6.332 25.6435 6.332 25.6675 6.316C25.6995 6.3 25.7195 6.272 25.7275 6.232L26.4715 1.024C26.4955 0.927999 26.5555 0.879999 26.6515 0.879999H27.4915C27.5955 0.879999 27.6515 0.927999 27.6595 1.024L28.4155 6.232C28.4235 6.272 28.4395 6.3 28.4635 6.316C28.4955 6.332 28.5235 6.332 28.5475 6.316C28.5795 6.3 28.5995 6.272 28.6075 6.232L29.3515 1.024C29.3675 0.927999 29.4275 0.879999 29.5315 0.879999ZM32.1571 1.036V9.844C32.1571 9.948 32.1011 10 31.9891 10H31.1731C31.0691 10 31.0171 9.948 31.0171 9.844V1.036C31.0171 0.931999 31.0691 0.879999 31.1731 0.879999H31.9891C32.1011 0.879999 32.1571 0.931999 32.1571 1.036ZM32.9507 9.844V1.036C32.9507 0.931999 33.0027 0.879999 33.1067 0.879999H35.6867C35.7667 0.879999 35.8307 0.904 35.8787 0.952L36.2867 1.372C36.3427 1.42 36.3707 1.484 36.3707 1.564V4.744C36.3707 4.824 36.3427 4.892 36.2867 4.948L35.9027 5.332C35.8227 5.404 35.8227 5.472 35.9027 5.536L36.2867 5.92C36.3427 5.968 36.3707 6.036 36.3707 6.124V9.316C36.3707 9.396 36.3427 9.46 36.2867 9.508L35.8787 9.916C35.8307 9.972 35.7667 10 35.6867 10H33.1067C33.0027 10 32.9507 9.948 32.9507 9.844ZM35.2307 8.596V6.256C35.2307 6.176 35.2107 6.112 35.1707 6.064C35.1227 6.024 35.0587 6.004 34.9787 6.004H34.2587C34.1547 6.004 34.1027 6.056 34.1027 6.16V8.692C34.1027 8.796 34.1547 8.848 34.2587 8.848H34.9787C35.0587 8.848 35.1227 8.828 35.1707 8.788C35.2107 8.74 35.2307 8.676 35.2307 8.596ZM34.1027 2.176V4.708C34.1027 4.812 34.1547 4.864 34.2587 4.864H34.9787C35.0587 4.864 35.1227 4.844 35.1707 4.804C35.2107 4.756 35.2307 4.692 35.2307 4.612V2.26C35.2307 2.18 35.2107 2.12 35.1707 2.08C35.1067 2.032 35.0427 2.008 34.9787 2.008H34.2587C34.1547 2.008 34.1027 2.064 34.1027 2.176ZM39.5706 1.024L41.1066 9.832C41.1226 9.944 41.0746 10 40.9626 10H40.1466C40.0426 10 39.9866 9.952 39.9786 9.856L39.6186 7.864C39.6106 7.768 39.5546 7.72 39.4506 7.72H38.4906C38.3866 7.72 38.3306 7.768 38.3226 7.864L37.9986 9.856C37.9826 9.952 37.9226 10 37.8186 10H37.0026C36.8906 10 36.8426 9.944 36.8586 9.832L38.3826 1.024C38.3986 0.927999 38.4546 0.879999 38.5506 0.879999H39.3906C39.4866 0.879999 39.5466 0.927999 39.5706 1.024ZM38.8746 4.54L38.5626 6.4C38.5466 6.512 38.5946 6.568 38.7066 6.568H39.2346C39.3466 6.568 39.3946 6.512 39.3786 6.4L39.0666 4.54C39.0586 4.492 39.0386 4.46 39.0066 4.444C38.9826 4.42 38.9546 4.42 38.9226 4.444C38.8986 4.46 38.8826 4.492 38.8746 4.54ZM46.594 0.879999H47.41C47.522 0.879999 47.57 0.935999 47.554 1.048L46.162 9.856C46.154 9.952 46.098 10 45.994 10H45.154C45.05 10 44.99 9.952 44.974 9.856L44.23 5.044C44.214 4.972 44.182 4.936 44.134 4.936C44.086 4.936 44.054 4.972 44.038 5.044L43.294 9.856C43.27 9.952 43.21 10 43.114 10H42.274C42.17 10 42.114 9.952 42.106 9.856L40.714 1.048C40.698 0.935999 40.746 0.879999 40.858 0.879999H41.674C41.778 0.879999 41.838 0.927999 41.854 1.024L42.598 6.232C42.606 6.272 42.622 6.3 42.646 6.316C42.678 6.332 42.706 6.332 42.73 6.316C42.762 6.3 42.782 6.272 42.79 6.232L43.534 1.024C43.558 0.927999 43.618 0.879999 43.714 0.879999H44.554C44.658 0.879999 44.714 0.927999 44.722 1.024L45.478 6.232C45.486 6.272 45.502 6.3 45.526 6.316C45.558 6.332 45.586 6.332 45.61 6.316C45.642 6.3 45.662 6.272 45.67 6.232L46.414 1.024C46.43 0.927999 46.49 0.879999 46.594 0.879999ZM49.8713 1.024L51.4073 9.832C51.4233 9.944 51.3753 10 51.2633 10H50.4473C50.3433 10 50.2873 9.952 50.2793 9.856L49.9193 7.864C49.9113 7.768 49.8553 7.72 49.7513 7.72H48.7913C48.6873 7.72 48.6313 7.768 48.6233 7.864L48.2993 9.856C48.2833 9.952 48.2233 10 48.1193 10H47.3033C47.1913 10 47.1433 9.944 47.1593 9.832L48.6833 1.024C48.6993 0.927999 48.7553 0.879999 48.8513 0.879999H49.6913C49.7873 0.879999 49.8473 0.927999 49.8713 1.024ZM49.1753 4.54L48.8633 6.4C48.8473 6.512 48.8953 6.568 49.0073 6.568H49.5353C49.6473 6.568 49.6953 6.512 49.6793 6.4L49.3673 4.54C49.3593 4.492 49.3393 4.46 49.3073 4.444C49.2833 4.42 49.2553 4.42 49.2233 4.444C49.1993 4.46 49.1833 4.492 49.1753 4.54Z" fill="#C4C4C4"/>
</svg>
