<svg width="31" height="23" viewBox="0 0 31 23" fill="none" xmlns="http://www.w3.org/2000/svg">
<path d="M0.54 5.764C0.54 5.148 0.652 4.576 0.876 4.048C1.108 3.52 1.416 3.06 1.8 2.668C2.192 2.276 2.652 1.972 3.18 1.756C3.708 1.532 4.276 1.424 4.884 1.432C5.532 1.44 6.128 1.572 6.672 1.828C7.224 2.084 7.7 2.436 8.1 2.884C8.124 2.916 8.132 2.952 8.124 2.992C8.124 3.032 8.108 3.064 8.076 3.088L7.128 3.892C7.096 3.916 7.06 3.928 7.02 3.928C6.98 3.92 6.948 3.9 6.924 3.868C6.66 3.564 6.348 3.324 5.988 3.148C5.628 2.964 5.24 2.876 4.824 2.884C4.448 2.892 4.092 2.976 3.756 3.136C3.42 3.288 3.128 3.5 2.88 3.772C2.632 4.036 2.436 4.344 2.292 4.696C2.148 5.048 2.076 5.424 2.076 5.824C2.076 6.224 2.152 6.6 2.304 6.952C2.456 7.304 2.66 7.612 2.916 7.876C3.172 8.14 3.468 8.348 3.804 8.5C4.14 8.644 4.5 8.716 4.884 8.716C5.284 8.708 5.66 8.616 6.012 8.44C6.364 8.264 6.668 8.024 6.924 7.72C6.948 7.688 6.98 7.672 7.02 7.672C7.06 7.664 7.096 7.676 7.128 7.708L8.076 8.512C8.108 8.536 8.124 8.568 8.124 8.608C8.132 8.648 8.124 8.684 8.1 8.716C7.692 9.172 7.208 9.532 6.648 9.796C6.088 10.052 5.476 10.176 4.812 10.168C4.212 10.168 3.648 10.056 3.12 9.832C2.6 9.6 2.148 9.288 1.764 8.896C1.38 8.496 1.08 8.028 0.864 7.492C0.648 6.956 0.54 6.38 0.54 5.764ZM9.47756 9.856V1.744C9.47756 1.704 9.48956 1.672 9.51356 1.648C9.54556 1.616 9.58156 1.6 9.62156 1.6H10.7616C10.9216 1.6 11.0536 1.664 11.1576 1.792L17.3376 9.832C17.3616 9.872 17.3616 9.912 17.3376 9.952C17.3216 9.984 17.2896 10 17.2416 10H15.7176C15.5576 10 15.4256 9.936 15.3216 9.808L13.2456 7.096L11.1576 9.808C11.0536 9.936 10.9216 10 10.7616 10H9.62156C9.58156 10 9.54556 9.988 9.51356 9.964C9.48956 9.932 9.47756 9.896 9.47756 9.856ZM11.0136 4.192V7.408L12.2496 5.8L11.0136 4.192ZM18.2901 9.856V1.744C18.2901 1.704 18.3021 1.672 18.3261 1.648C18.3581 1.616 18.3941 1.6 18.4341 1.6H19.6701C19.7741 1.6 19.8261 1.648 19.8261 1.744V5.044H23.2701V1.744C23.2701 1.704 23.2821 1.672 23.3061 1.648C23.3381 1.616 23.3741 1.6 23.4141 1.6H24.6621C24.7021 1.6 24.7341 1.616 24.7581 1.648C24.7901 1.672 24.8061 1.704 24.8061 1.744V9.856C24.8061 9.896 24.7901 9.932 24.7581 9.964C24.7341 9.988 24.7021 10 24.6621 10H23.4141C23.3741 10 23.3381 9.988 23.3061 9.964C23.2821 9.932 23.2701 9.896 23.2701 9.856V6.568H19.8261V9.856C19.8261 9.952 19.7741 10 19.6701 10H18.4341C18.3941 10 18.3581 9.988 18.3261 9.964C18.3021 9.932 18.2901 9.896 18.2901 9.856Z" fill="#C4C4C4"/>
<path d="M13.192 11.576H14.716C14.876 11.576 15.008 11.64 15.112 11.768L17.572 14.972L20.032 11.768C20.136 11.64 20.268 11.576 20.428 11.576H21.952C22 11.576 22.032 11.596 22.048 11.636C22.072 11.676 22.068 11.712 22.036 11.744L15.868 19.784C15.764 19.912 15.632 19.976 15.472 19.976H13.948C13.908 19.976 13.876 19.96 13.852 19.928C13.828 19.888 13.832 19.848 13.864 19.808L16.576 16.268L13.108 11.744C13.076 11.712 13.072 11.676 13.096 11.636C13.12 11.596 13.152 11.576 13.192 11.576ZM22.9932 19.856V11.744C22.9932 11.704 23.0052 11.672 23.0292 11.648C23.0612 11.616 23.0972 11.6 23.1372 11.6H24.2772C24.4372 11.6 24.5692 11.664 24.6732 11.792L30.8532 19.832C30.8772 19.872 30.8772 19.912 30.8532 19.952C30.8372 19.984 30.8052 20 30.7572 20H29.2332C29.0732 20 28.9412 19.936 28.8372 19.808L26.7612 17.096L24.6732 19.808C24.5692 19.936 24.4372 20 24.2772 20H23.1372C23.0972 20 23.0612 19.988 23.0292 19.964C23.0052 19.932 22.9932 19.896 22.9932 19.856ZM24.5292 14.192V17.408L25.7652 15.8L24.5292 14.192Z" fill="#C4C4C4"/>
</svg>
