<svg width="101" height="10" viewBox="0 0 101 10" fill="none" xmlns="http://www.w3.org/2000/svg">
<path d="M4.8 9.18C3.608 9.18 2.592 8.776 1.752 7.968C0.92 7.16 0.504 6.088 0.504 4.752C0.504 3.424 0.928 2.352 1.776 1.536C2.624 0.72 3.628 0.312 4.788 0.312C5.812 0.312 6.652 0.572 7.308 1.092C7.972 1.612 8.408 2.272 8.616 3.072L7.26 3.528C7.124 2.976 6.848 2.528 6.432 2.184C6.016 1.84 5.468 1.668 4.788 1.668C4.028 1.668 3.368 1.94 2.808 2.484C2.256 3.02 1.98 3.776 1.98 4.752C1.98 5.704 2.256 6.452 2.808 6.996C3.36 7.532 4.024 7.8 4.8 7.8C5.464 7.8 6.012 7.62 6.444 7.26C6.876 6.9 7.172 6.456 7.332 5.928L8.652 6.36C8.444 7.152 8.004 7.82 7.332 8.364C6.668 8.908 5.824 9.18 4.8 9.18ZM16.1091 9L15.3051 6.864H11.7051L10.9131 9H9.38906L12.7011 0.491999H14.3691L17.6811 9H16.1091ZM13.5051 2.052L12.2091 5.532H14.8011L13.5051 2.052ZM26.1883 9H24.7363V5.364H20.7403V9H19.3003V0.491999H20.7403V4.008H24.7363V0.491999H26.1883V9ZM30.786 5.4L27.81 0.491999H29.514L31.554 4.056L33.606 0.491999H35.226L32.226 5.4V9H30.786V5.4ZM41.7834 9L40.9794 6.864H37.3794L36.5874 9H35.0634L38.3754 0.491999H40.0434L43.3554 9H41.7834ZM39.1794 2.052L37.8834 5.532H40.4754L39.1794 2.052ZM56.3033 6.756L57.9713 0.491999H59.4593L57.0713 9H55.5833L53.5193 2.568L51.4553 9H49.9793L47.5673 0.491999H49.0793L50.7833 6.708L52.7753 0.491999H54.2753L56.3033 6.756ZM62.5745 9H61.1105V0.491999H62.5745V9ZM65.0944 0.491999H68.0224C68.8224 0.491999 69.4544 0.704 69.9184 1.128C70.3824 1.552 70.6144 2.104 70.6144 2.784C70.6144 3.224 70.4984 3.608 70.2664 3.936C70.0344 4.256 69.7304 4.484 69.3544 4.62C69.8104 4.74 70.1784 4.984 70.4584 5.352C70.7384 5.72 70.8784 6.152 70.8784 6.648C70.8784 7.336 70.6344 7.9 70.1464 8.34C69.6584 8.78 69.0224 9 68.2384 9H65.0944V0.491999ZM66.5224 4.092H67.8304C68.2464 4.092 68.5744 3.984 68.8144 3.768C69.0544 3.552 69.1744 3.264 69.1744 2.904C69.1744 2.536 69.0504 2.248 68.8024 2.04C68.5624 1.824 68.2264 1.716 67.7944 1.716H66.5224V4.092ZM66.5224 7.776H67.9864C68.4184 7.776 68.7624 7.668 69.0184 7.452C69.2824 7.228 69.4144 6.928 69.4144 6.552C69.4144 6.176 69.2904 5.876 69.0424 5.652C68.8024 5.42 68.4664 5.304 68.0344 5.304H66.5224V7.776ZM78.4725 9L77.6685 6.864H74.0685L73.2765 9H71.7525L75.0645 0.491999H76.7325L80.0445 9H78.4725ZM75.8685 2.052L74.5725 5.532H77.1645L75.8685 2.052ZM89.0201 6.756L90.6881 0.491999H92.1761L89.7881 9H88.3001L86.2361 2.568L84.1721 9H82.6961L80.2841 0.491999H81.7961L83.5001 6.708L85.4921 0.491999H86.9921L89.0201 6.756ZM99.1317 9L98.3277 6.864H94.7277L93.9357 9H92.4117L95.7237 0.491999H97.3917L100.704 9H99.1317ZM96.5277 2.052L95.2317 5.532H97.8237L96.5277 2.052Z" fill="#C4C4C4"/>
</svg>
